<svg xmlns="http://www.w3.org/2000/svg" xmlns:xlink="http://www.w3.org/1999/xlink" width="500" zoomAndPan="magnify" viewBox="0 0 375 374.999991" height="500" preserveAspectRatio="xMidYMid meet" version="1.0"><defs><clipPath id="5c2b075e5e"><path d="M 21 38.570312 L 354 38.570312 L 354 336 L 21 336 Z M 21 38.570312 " clip-rule="nonzero"/></clipPath></defs><g clip-path="url(#5c2b075e5e)"><path fill="#fefdfe" d="M 353.558594 129.777344 C 353.558594 79.222656 312.550781 38.242188 261.972656 38.242188 C 231.269531 38.242188 204.175781 53.390625 187.550781 76.542969 C 170.925781 53.390625 143.832031 38.242188 113.136719 38.242188 C 62.550781 38.242188 21.542969 79.214844 21.542969 129.777344 C 21.542969 136.9375 22.453125 143.875 24.011719 150.5625 C 36.730469 229.527344 124.582031 312.832031 187.550781 335.707031 C 250.511719 312.832031 338.371094 229.527344 351.070312 150.574219 C 352.648438 143.886719 353.558594 136.945312 353.558594 129.777344 Z M 353.558594 129.777344 " fill-opacity="1" fill-rule="nonzero"/></g></svg>