<svg xmlns="http://www.w3.org/2000/svg" xmlns:xlink="http://www.w3.org/1999/xlink" width="500" zoomAndPan="magnify" viewBox="0 0 375 374.999991" height="500" preserveAspectRatio="xMidYMid meet" version="1.0"><defs><clipPath id="c1fcb30a8e"><path d="M 132 61.238281 L 368 61.238281 L 368 313.988281 L 132 313.988281 Z M 132 61.238281 " clip-rule="nonzero"/></clipPath></defs><g clip-path="url(#c1fcb30a8e)"><path fill="#ffffff" d="M 333.65625 313.988281 C 352.433594 313.988281 367.703125 291.457031 367.703125 263.738281 L 367.703125 111.292969 C 367.703125 83.574219 352.433594 61.042969 333.65625 61.042969 C 314.839844 61.042969 299.609375 83.574219 299.609375 111.292969 L 299.609375 153.359375 L 175.824219 82.351562 C 152.238281 68.847656 133.128906 79.441406 132.324219 105.894531 L 211.433594 151.292969 C 227.042969 160.238281 236.027344 173.445312 236.027344 187.535156 C 236.027344 201.628906 227.042969 214.792969 211.433594 223.78125 L 132.324219 269.136719 C 133.128906 295.589844 152.238281 306.183594 175.824219 292.679688 L 299.609375 221.710938 L 299.609375 263.738281 C 299.566406 291.5 314.839844 313.988281 333.65625 313.988281 Z M 333.65625 313.988281 " fill-opacity="1" fill-rule="nonzero"/></g><path fill="#ffffff" d="M 191.179688 162.515625 L 51.40625 82.351562 C 27.355469 68.554688 7.824219 79.863281 7.824219 107.625 L 7.824219 267.449219 C 7.824219 295.167969 27.355469 306.476562 51.40625 292.679688 L 191.179688 212.558594 C 215.273438 198.71875 215.273438 176.3125 191.179688 162.515625 Z M 191.179688 162.515625 " fill-opacity="1" fill-rule="nonzero"/></svg>