<svg xmlns="http://www.w3.org/2000/svg" xmlns:xlink="http://www.w3.org/1999/xlink" width="500" zoomAndPan="magnify" viewBox="0 0 375 374.999991" height="500" preserveAspectRatio="xMidYMid meet" version="1.0"><path fill="#ffffff" d="M 187.769531 375 C 84.171875 375 0 290.828125 0 187.230469 C 0 83.632812 84.171875 -0.539062 187.769531 -0.539062 C 291.367188 -0.539062 375.539062 83.632812 375.539062 187.230469 C 375.539062 290.828125 291.367188 375 187.769531 375 Z M 187.769531 21.851562 C 96.851562 21.851562 22.660156 96.042969 22.660156 186.960938 C 22.660156 278.148438 96.851562 352.070312 187.769531 352.070312 C 278.6875 352.070312 352.878906 277.878906 352.878906 186.960938 C 353.148438 96.042969 278.957031 21.851562 187.769531 21.851562 Z M 187.769531 21.851562 " fill-opacity="1" fill-rule="nonzero"/><path fill="#ffffff" d="M 212.050781 116.007812 L 229.316406 116.007812 L 229.316406 261.152344 L 212.050781 261.152344 Z M 212.050781 116.007812 " fill-opacity="1" fill-rule="nonzero"/><path fill="#ffffff" d="M 146.222656 116.007812 L 163.488281 116.007812 L 163.488281 261.152344 L 146.222656 261.152344 Z M 146.222656 116.007812 " fill-opacity="1" fill-rule="nonzero"/></svg>