<svg xmlns="http://www.w3.org/2000/svg" xmlns:xlink="http://www.w3.org/1999/xlink" width="500" zoomAndPan="magnify" viewBox="0 0 375 374.999991" height="500" preserveAspectRatio="xMidYMid meet" version="1.0"><defs><clipPath id="f9749d9e73"><path d="M 7 61.003906 L 243 61.003906 L 243 313.753906 L 7 313.753906 Z M 7 61.003906 " clip-rule="nonzero"/></clipPath></defs><g clip-path="url(#f9749d9e73)"><path fill="#ffffff" d="M 41.335938 61.003906 C 22.558594 61.003906 7.285156 83.535156 7.285156 111.253906 L 7.285156 263.695312 C 7.285156 291.417969 22.558594 313.949219 41.335938 313.949219 C 60.152344 313.949219 75.382812 291.417969 75.382812 263.695312 L 75.382812 221.628906 L 199.167969 292.640625 C 222.753906 306.140625 241.863281 295.550781 242.664062 269.097656 L 163.558594 223.699219 C 147.949219 214.753906 138.960938 201.546875 138.960938 187.453125 C 138.960938 173.363281 147.949219 160.199219 163.558594 151.210938 L 242.664062 105.855469 C 241.863281 79.398438 222.753906 68.808594 199.167969 82.3125 L 75.382812 153.277344 L 75.382812 111.253906 C 75.425781 83.492188 60.152344 61.003906 41.335938 61.003906 Z M 41.335938 61.003906 " fill-opacity="1" fill-rule="nonzero"/></g><path fill="#ffffff" d="M 183.808594 212.472656 L 323.585938 292.640625 C 347.636719 306.4375 367.167969 295.128906 367.167969 267.367188 L 367.167969 107.542969 C 367.167969 79.820312 347.636719 68.511719 323.585938 82.3125 L 183.808594 162.433594 C 159.71875 176.273438 159.71875 198.675781 183.808594 212.472656 Z M 183.808594 212.472656 " fill-opacity="1" fill-rule="nonzero"/></svg>