<svg xmlns="http://www.w3.org/2000/svg" xmlns:xlink="http://www.w3.org/1999/xlink" width="500" zoomAndPan="magnify" viewBox="0 0 375 374.999991" height="500" preserveAspectRatio="xMidYMid meet" version="1.0"><defs><clipPath id="7821c701c0"><path d="M 9.535156 45.996094 L 365.785156 45.996094 L 365.785156 328.957031 L 9.535156 328.957031 Z M 9.535156 45.996094 " clip-rule="nonzero"/></clipPath></defs><g clip-path="url(#7821c701c0)"><path fill="#ffffff" d="M 187.84375 298.503906 C 187.84375 304.785156 184.214844 310.488281 178.527344 313.140625 C 176.339844 314.1875 173.984375 314.695312 171.644531 314.695312 C 167.960938 314.695312 164.292969 313.421875 161.320312 310.953125 L 72.847656 237.695312 L 25.714844 237.695312 C 16.773438 237.695312 9.535156 230.441406 9.535156 221.507812 L 9.535156 157.070312 C 9.535156 148.136719 16.773438 140.882812 25.714844 140.882812 L 72.847656 140.882812 L 161.320312 67.605469 C 166.164062 63.605469 172.859375 62.746094 178.546875 65.4375 C 184.214844 68.089844 187.84375 73.792969 187.84375 80.074219 Z M 250.035156 273.230469 C 249.640625 273.25 249.269531 273.269531 248.875 273.269531 C 244.59375 273.269531 240.476562 271.585938 237.429688 268.539062 L 235.257812 266.371094 C 229.589844 260.707031 228.917969 251.734375 233.707031 245.285156 C 245.828125 228.964844 252.222656 209.601562 252.222656 189.300781 C 252.222656 167.445312 244.949219 146.957031 231.21875 130.042969 C 225.980469 123.609375 226.46875 114.265625 232.324219 108.414062 L 234.492188 106.246094 C 237.726562 103.011719 242.046875 101.253906 246.742188 101.535156 C 251.308594 101.757812 255.570312 103.90625 258.472656 107.441406 C 277.53125 130.75 287.613281 159.070312 287.613281 189.300781 C 287.613281 217.449219 278.691406 244.238281 261.835938 266.78125 C 259.03125 270.539062 254.730469 272.894531 250.035156 273.230469 Z M 316.960938 323.21875 C 314.023438 326.675781 309.796875 328.75 305.269531 328.9375 C 305.042969 328.957031 304.820312 328.957031 304.578125 328.957031 C 300.292969 328.957031 296.179688 327.253906 293.128906 324.226562 L 291.015625 322.097656 C 285.070312 316.171875 284.675781 306.675781 290.0625 300.242188 C 316.171875 269.230469 330.558594 229.824219 330.558594 189.300781 C 330.558594 147.125 315.164062 106.5625 287.21875 75.027344 C 281.550781 68.613281 281.832031 58.933594 287.855469 52.894531 L 289.988281 50.761719 C 293.128906 47.605469 297.226562 45.847656 301.921875 45.996094 C 306.371094 46.128906 310.582031 48.109375 313.554688 51.4375 C 347.316406 89.441406 365.925781 138.398438 365.925781 189.300781 C 365.945312 238.257812 348.550781 285.8125 316.960938 323.21875 Z M 316.960938 323.21875 " fill-opacity="1" fill-rule="nonzero"/></g></svg>