<svg xmlns="http://www.w3.org/2000/svg" xmlns:xlink="http://www.w3.org/1999/xlink" width="500" zoomAndPan="magnify" viewBox="0 0 375 374.999991" height="500" preserveAspectRatio="xMidYMid meet" version="1.0"><defs><clipPath id="7ed5d7e006"><path d="M 22.335938 62.394531 L 199.917969 62.394531 L 199.917969 312.894531 L 22.335938 312.894531 Z M 22.335938 62.394531 " clip-rule="nonzero"/></clipPath></defs><g clip-path="url(#7ed5d7e006)"><path fill="#fefdfe" d="M 199.933594 296.738281 C 199.933594 303.015625 196.320312 308.710938 190.65625 311.363281 C 188.476562 312.390625 186.128906 312.894531 183.800781 312.894531 C 180.128906 312.894531 176.480469 311.621094 173.515625 309.175781 L 85.398438 235.976562 L 38.449219 235.976562 C 29.542969 235.976562 22.335938 228.746094 22.335938 219.820312 L 22.335938 155.453125 C 22.335938 146.527344 29.542969 139.28125 38.449219 139.28125 L 85.398438 139.28125 L 173.515625 66.078125 C 178.34375 62.082031 185.011719 61.222656 190.675781 63.894531 C 196.320312 66.566406 199.933594 72.242188 199.933594 78.535156 Z M 199.933594 296.738281 " fill-opacity="1" fill-rule="nonzero"/></g></svg>